0
SECTION
2
HEADER
9
$INSUNITS
70
4
9
$ACADVER
1
AC1014
9
$HANDSEED
5
FFFF
0
ENDSEC
0
SECTION
2
TABLES
0
TABLE
2
VPORT
5
8
100
AcDbSymbolTable
0
ENDTAB
0
TABLE
2
LTYPE
5
5
100
AcDbSymbolTable
0
LTYPE
5
14
100
AcDbSymbolTableRecord
100
AcDbLinetypeTableRecord
2
BYBLOCK
70
0
0
LTYPE
5
15
100
AcDbSymbolTableRecord
100
AcDbLinetypeTableRecord
2
BYLAYER
70
0
0
ENDTAB
0
TABLE
2
LAYER
5
2
100
AcDbSymbolTable
70
2
0
LAYER
5
50
100
AcDbSymbolTableRecord
100
AcDbLayerTableRecord
2
0
70
0
6
CONTINUOUS
0
ENDTAB
0
TABLE
2
STYLE
5
3
100
AcDbSymbolTable
70
1
0
STYLE
5
11
100
AcDbSymbolTableRecord
100
AcDbTextStyleTableRecord
2
STANDARD
70
0
0
ENDTAB
0
TABLE
2
VIEW
5
6
100
AcDbSymbolTable
70
0
0
ENDTAB
0
TABLE
2
UCS
5
7
100
AcDbSymbolTable
70
0
0
ENDTAB
0
TABLE
2
APPID
5
9
100
AcDbSymbolTable
70
2
0
APPID
5
12
100
AcDbSymbolTableRecord
100
AcDbRegAppTableRecord
2
ACAD
70
0
0
ENDTAB
0
TABLE
2
DIMSTYLE
5
A
100
AcDbSymbolTable
70
1
0
ENDTAB
0
TABLE
2
BLOCK_RECORD
5
1
100
AcDbSymbolTable
70
1
0
BLOCK_RECORD
5
1F
100
AcDbSymbolTableRecord
100
AcDbBlockTableRecord
2
*MODEL_SPACE
0
BLOCK_RECORD
5
1B
100
AcDbSymbolTableRecord
100
AcDbBlockTableRecord
2
*PAPER_SPACE
0
ENDTAB
0
ENDSEC
0
SECTION
2
BLOCKS
0
BLOCK
5
20
100
AcDbEntity
100
AcDbBlockBegin
2
*MODEL_SPACE
0
ENDBLK
5
21
100
AcDbEntity
100
AcDbBlockEnd
0
BLOCK
5
1C
100
AcDbEntity
100
AcDbBlockBegin
2
*PAPER_SPACE
0
ENDBLK
5
1D
100
AcDbEntity
100
AcDbBlockEnd
0
ENDSEC
0
SECTION
2
ENTITIES
0
LWPOLYLINE
5
100
100
AcDbEntity
8
0
100
AcDbPolyline
90
56
70
1
43
0.0
10
-140.5
20
-123.50000000000003
42
0.41421356237309503
10
-139.49999999999997
20
-122.5
10
-139.49999999999997
20
-110
42
0.41421356237309503
10
-150
20
-99.499999999999957
10
-159
20
-99.500000000000014
42
-0.41421356237310025
10
-160
20
-98.5
10
-160
20
21.000000000000014
42
-0.41421356237309503
10
-159
20
22.000000000000028
10
-150
20
22.000000000000028
42
0.41421356237309503
10
-139.5
20
32.5
10
-139.5
20
45
42
0.41421356237309503
10
-140.5
20
46.000000000000014
10
-146
20
45.999999999999979
42
-0.41421356237309503
10
-147.00000000000006
20
47.000000000000028
10
-147.00000000000003
20
68.000000000000043
42
-0.41421356237309503
10
-146
20
69.000000000000057
10
-140.5
20
68.999999999999915
42
0.41421356237309503
10
-139.5
20
70
10
-139.5
20
82.5
42
0.41421356237309503
10
-150
20
93.000000000000043
10
-159
20
92.999999999999986
42
-0.41421356237309503
10
-160
20
93.999999999999986
10
-160
20
213.5
42
-0.41421356237309503
10
-159
20
214.50000000000003
10
-150
20
214.50000000000003
42
0.41421356237309503
10
-139.5
20
225
10
-139.5
20
237.5
42
0.41421356237309503
10
-140.5
20
238.5
10
-146
20
238.49999999999997
42
-0.41421356237309503
10
-147.00000000000006
20
239.50000000000003
10
-147.00000000000003
20
260.50000000000006
42
-0.41421356237309503
10
-146
20
261.50000000000006
10
-140.5
20
261.49999999999989
42
0.41421356237309503
10
-139.5
20
262.5
10
-139.5
20
275
42
0.41421356237309503
10
-150
20
285.50000000000006
10
-159
20
285.5
42
-0.41421356237309503
10
-160
20
286.5
10
-160
20
326.50000000000006
42
-0.41421356237309503
10
-154.99999999999997
20
331.50000000000006
10
293
20
331.50000000000006
42
-0.41421356237309503
10
298
20
326.50000000000006
10
298
20
-211.50000000000003
42
-0.41421356237309503
10
293
20
-216.50000000000003
10
-155
20
-216.50000000000003
42
-0.41421356237309503
10
-160
20
-211.50000000000003
10
-159.99999999999994
20
-171.5
42
-0.41421356237309503
10
-159
20
-170.50000000000006
10
-150
20
-170.50000000000006
42
0.41421356237309503
10
-139.49999999999997
20
-160
10
-139.49999999999997
20
-147.5
42
0.41421356237309503
10
-140.5
20
-146.49999999999997
10
-146
20
-146.5
42
-0.41421356237309503
10
-147
20
-145.5
10
-147
20
-124.50000000000001
42
-0.41421356237309503
10
-146
20
-123.50000000000001
0
CIRCLE
5
101
100
AcDbEntity
8
0
100
AcDbCircle
10
-122.00000000000001
20
250
30
0
40
1.7000000000000035
210
0
220
0
230
1
0
CIRCLE
5
102
100
AcDbEntity
8
0
100
AcDbCircle
10
-137
20
-135
30
0
40
1.6999999999999893
210
0
220
0
230
1
0
CIRCLE
5
103
100
AcDbEntity
8
0
100
AcDbCircle
10
272
20
-170.5
30
0
40
1.7000000000000171
210
0
220
0
230
1
0
CIRCLE
5
104
100
AcDbEntity
8
0
100
AcDbCircle
10
263.5
20
-170.5
30
0
40
1.7000000000000171
210
0
220
0
230
1
0
CIRCLE
5
105
100
AcDbEntity
8
0
100
AcDbCircle
10
272
20
300.5
30
0
40
1.6999999999999602
210
0
220
0
230
1
0
CIRCLE
5
106
100
AcDbEntity
8
0
100
AcDbCircle
10
263.5
20
300.5
30
0
40
1.699999999999946
210
0
220
0
230
1
0
CIRCLE
5
107
100
AcDbEntity
8
0
100
AcDbCircle
10
-122.00000000000001
20
-135
30
0
40
1.6999999999999893
210
0
220
0
230
1
0
CIRCLE
5
108
100
AcDbEntity
8
0
100
AcDbCircle
10
-137
20
250
30
0
40
1.7000000000000171
210
0
220
0
230
1
0
CIRCLE
5
109
100
AcDbEntity
8
0
100
AcDbCircle
10
-137
20
57.5
30
0
40
1.7000000000000171
210
0
220
0
230
1
0
CIRCLE
5
110
100
AcDbEntity
8
0
100
AcDbCircle
10
-122.00000000000001
20
57.5
30
0
40
1.7000000000000035
210
0
220
0
230
1
0
ENDSEC
0
SECTION
2
OBJECTS
0
DICTIONARY
5
C
100
AcDbDictionary
3
ACAD_GROUP
350
D
3
ACAD_MLINESTYLE
350
17
0
DICTIONARY
5
D
100
AcDbDictionary
0
DICTIONARY
5
1A
330
C
100
AcDbDictionary
0
DICTIONARY
5
17
100
AcDbDictionary
0
ENDSEC
0
EOF
