0
SECTION
2
HEADER
9
$INSUNITS
70
4
9
$ACADVER
1
AC1014
9
$HANDSEED
5
FFFF
0
ENDSEC
0
SECTION
2
TABLES
0
TABLE
2
VPORT
5
8
100
AcDbSymbolTable
0
ENDTAB
0
TABLE
2
LTYPE
5
5
100
AcDbSymbolTable
0
LTYPE
5
14
100
AcDbSymbolTableRecord
100
AcDbLinetypeTableRecord
2
BYBLOCK
70
0
0
LTYPE
5
15
100
AcDbSymbolTableRecord
100
AcDbLinetypeTableRecord
2
BYLAYER
70
0
0
ENDTAB
0
TABLE
2
LAYER
5
2
100
AcDbSymbolTable
70
2
0
LAYER
5
50
100
AcDbSymbolTableRecord
100
AcDbLayerTableRecord
2
0
70
0
6
CONTINUOUS
0
ENDTAB
0
TABLE
2
STYLE
5
3
100
AcDbSymbolTable
70
1
0
STYLE
5
11
100
AcDbSymbolTableRecord
100
AcDbTextStyleTableRecord
2
STANDARD
70
0
0
ENDTAB
0
TABLE
2
VIEW
5
6
100
AcDbSymbolTable
70
0
0
ENDTAB
0
TABLE
2
UCS
5
7
100
AcDbSymbolTable
70
0
0
ENDTAB
0
TABLE
2
APPID
5
9
100
AcDbSymbolTable
70
2
0
APPID
5
12
100
AcDbSymbolTableRecord
100
AcDbRegAppTableRecord
2
ACAD
70
0
0
ENDTAB
0
TABLE
2
DIMSTYLE
5
A
100
AcDbSymbolTable
70
1
0
ENDTAB
0
TABLE
2
BLOCK_RECORD
5
1
100
AcDbSymbolTable
70
1
0
BLOCK_RECORD
5
1F
100
AcDbSymbolTableRecord
100
AcDbBlockTableRecord
2
*MODEL_SPACE
0
BLOCK_RECORD
5
1B
100
AcDbSymbolTableRecord
100
AcDbBlockTableRecord
2
*PAPER_SPACE
0
ENDTAB
0
ENDSEC
0
SECTION
2
BLOCKS
0
BLOCK
5
20
100
AcDbEntity
100
AcDbBlockBegin
2
*MODEL_SPACE
0
ENDBLK
5
21
100
AcDbEntity
100
AcDbBlockEnd
0
BLOCK
5
1C
100
AcDbEntity
100
AcDbBlockBegin
2
*PAPER_SPACE
0
ENDBLK
5
1D
100
AcDbEntity
100
AcDbBlockEnd
0
ENDSEC
0
SECTION
2
ENTITIES
0
LWPOLYLINE
5
100
100
AcDbEntity
8
0
100
AcDbPolyline
90
56
70
1
43
0.0
10
-139.49999999999997
20
-112.5
10
-139.49999999999997
20
-100
42
0.41421356237309503
10
-150
20
-89.499999999999972
10
-159
20
-89.499999999999915
42
-0.41421356237310025
10
-160
20
-88.500000000000014
10
-160
20
21.000000000000007
42
-0.41421356237309115
10
-159
20
22.000000000000028
10
-150
20
22.000000000000028
42
0.4142135623730947
10
-139.5
20
32.5
10
-139.5
20
45
42
0.41421356237308204
10
-140.5
20
46.000000000000021
10
-146
20
45.999999999999979
42
-0.41421356237310025
10
-147.00000000000006
20
47.000000000000021
10
-147.00000000000003
20
68.000000000000043
42
-0.41421356237309764
10
-146
20
69.000000000000071
10
-140.5
20
68.999999999999929
42
0.41421356237312362
10
-139.5
20
70
10
-139.5
20
82.5
42
0.41421356237309503
10
-150
20
93.000000000000043
10
-159
20
92.999999999999986
42
-0.4142135623730846
10
-160
20
93.999999999999986
10
-160
20
203.5
42
-0.41421356237308982
10
-159
20
204.50000000000003
10
-150
20
204.50000000000003
42
0.41421356237309354
10
-139.5
20
215
10
-139.5
20
227.5
42
0.41421356237311585
10
-140.5
20
228.5
10
-146
20
228.5
42
-0.4142135623730846
10
-147.00000000000006
20
229.50000000000003
10
-147.00000000000003
20
250.50000000000011
42
-0.4142135623730378
10
-146
20
251.50000000000009
10
-140.5
20
251.49999999999991
42
0.41421356237308982
10
-139.5
20
252.5
10
-139.5
20
265
42
0.41421356237309503
10
-150
20
275.50000000000006
10
-159
20
275.5
42
-0.4142135623730534
10
-160
20
276.5
10
-160
20
316.5
42
-0.41421356237309193
10
-155
20
321.5
10
343.00000000000011
20
321.5
42
-0.41421356237310125
10
348.00000000000006
20
316.5
10
348.00000000000006
20
-201.50000000000003
42
-0.41421356237309709
10
343.00000000000011
20
-206.5
10
-155
20
-206.50000000000006
42
-0.41421356237309709
10
-160
20
-201.50000000000003
10
-159.99999999999997
20
-161.5
42
-0.41421356237311063
10
-159
20
-160.50000000000006
10
-150
20
-160.50000000000006
42
0.41421356237309653
10
-139.5
20
-150
10
-139.49999999999997
20
-137.5
42
0.41421356237309503
10
-140.5
20
-136.49999999999997
10
-146
20
-136.5
42
-0.41421356237313667
10
-147
20
-135.5
10
-147
20
-114.50000000000001
42
-0.4142135623730846
10
-146
20
-113.50000000000001
10
-140.5
20
-113.50000000000007
42
0.41421356237307422
0
CIRCLE
5
101
100
AcDbEntity
8
0
100
AcDbCircle
10
-137
20
-125
30
0
40
1.6999999999999893
210
0
220
0
230
1
0
CIRCLE
5
102
100
AcDbEntity
8
0
100
AcDbCircle
10
-137
20
57.5
30
0
40
1.7000000000000173
210
0
220
0
230
1
0
CIRCLE
5
103
100
AcDbEntity
8
0
100
AcDbCircle
10
322
20
-160.5
30
0
40
1.7000000000000173
210
0
220
0
230
1
0
CIRCLE
5
104
100
AcDbEntity
8
0
100
AcDbCircle
10
-122.00000000000001
20
-125
30
0
40
1.6999999999999893
210
0
220
0
230
1
0
CIRCLE
5
105
100
AcDbEntity
8
0
100
AcDbCircle
10
322
20
290.5
30
0
40
1.6999999999999604
210
0
220
0
230
1
0
CIRCLE
5
106
100
AcDbEntity
8
0
100
AcDbCircle
10
313.50000000000011
20
290.5
30
0
40
1.699999999999946
210
0
220
0
230
1
0
CIRCLE
5
107
100
AcDbEntity
8
0
100
AcDbCircle
10
-122.00000000000001
20
240
30
0
40
1.7000000000000037
210
0
220
0
230
1
0
CIRCLE
5
108
100
AcDbEntity
8
0
100
AcDbCircle
10
-137
20
240
30
0
40
1.7000000000000173
210
0
220
0
230
1
0
CIRCLE
5
109
100
AcDbEntity
8
0
100
AcDbCircle
10
-122.00000000000001
20
57.5
30
0
40
1.7000000000000037
210
0
220
0
230
1
0
CIRCLE
5
110
100
AcDbEntity
8
0
100
AcDbCircle
10
313.50000000000011
20
-160.5
30
0
40
1.7000000000000173
210
0
220
0
230
1
0
ENDSEC
0
SECTION
2
OBJECTS
0
DICTIONARY
5
C
100
AcDbDictionary
3
ACAD_GROUP
350
D
3
ACAD_MLINESTYLE
350
17
0
DICTIONARY
5
D
100
AcDbDictionary
0
DICTIONARY
5
1A
330
C
100
AcDbDictionary
0
DICTIONARY
5
17
100
AcDbDictionary
0
ENDSEC
0
EOF
